<mxfile host="app.diagrams.net" modified="2023-04-12T12:31:13.917Z" agent="Mozilla/5.0 (Windows NT 10.0; Win64; x64) AppleWebKit/537.36 (KHTML, like Gecko) Chrome/112.0.0.0 Safari/537.36" etag="laLYQ08_Iojo1wmYpq6a" version="21.1.7" type="github">
  <diagram name="Page-1" id="8lvKL5J-asqv-zALDepB">
    <mxGraphModel dx="2486" dy="2534" grid="1" gridSize="10" guides="1" tooltips="1" connect="1" arrows="1" fold="1" page="1" pageScale="1" pageWidth="850" pageHeight="1100" math="0" shadow="0">
      <root>
        <mxCell id="0" />
        <mxCell id="1" parent="0" />
        <mxCell id="q-Dt-RjhZ1r0aY70Fhyo-7" value="&lt;b&gt;&lt;font style=&quot;font-size: 28px;&quot;&gt;UI&lt;/font&gt;&lt;/b&gt;" style="text;html=1;strokeColor=none;fillColor=none;align=center;verticalAlign=middle;whiteSpace=wrap;rounded=0;" vertex="1" parent="1">
          <mxGeometry x="260" y="-230" width="120" height="40" as="geometry" />
        </mxCell>
        <mxCell id="q-Dt-RjhZ1r0aY70Fhyo-8" value="&lt;b&gt;&lt;font style=&quot;font-size: 28px;&quot;&gt;Toolkit&lt;/font&gt;&lt;/b&gt;" style="text;html=1;strokeColor=none;fillColor=none;align=center;verticalAlign=middle;whiteSpace=wrap;rounded=0;" vertex="1" parent="1">
          <mxGeometry x="350" y="-470" width="120" height="40" as="geometry" />
        </mxCell>
        <mxCell id="q-Dt-RjhZ1r0aY70Fhyo-13" value="&lt;h1 style=&quot;text-align: center;&quot;&gt;&lt;font style=&quot;font-size: 38px;&quot; face=&quot;Times New Roman&quot;&gt;Portable&lt;/font&gt;&lt;/h1&gt;&lt;p&gt;&lt;/p&gt;&lt;ul&gt;&lt;li&gt;&lt;font face=&quot;Times New Roman&quot;&gt;&lt;span style=&quot;font-size: 20px;&quot;&gt;Cross-platform Development&lt;/span&gt;&lt;/font&gt;&lt;/li&gt;&lt;li&gt;&lt;font face=&quot;Times New Roman&quot;&gt;&lt;span style=&quot;font-size: 20px;&quot;&gt;Build, Deploy, and Maintain through a single codebase.&lt;/span&gt;&lt;/font&gt;&lt;/li&gt;&lt;/ul&gt;&lt;p&gt;&lt;/p&gt;" style="text;html=1;strokeColor=none;fillColor=none;spacing=5;spacingTop=-20;whiteSpace=wrap;overflow=hidden;rounded=0;" vertex="1" parent="1">
          <mxGeometry x="261" y="-960" width="318" height="160" as="geometry" />
        </mxCell>
        <mxCell id="q-Dt-RjhZ1r0aY70Fhyo-19" value="" style="sketch=0;aspect=fixed;pointerEvents=1;shadow=0;dashed=0;html=1;strokeColor=none;labelPosition=center;verticalLabelPosition=bottom;verticalAlign=top;align=center;fillColor=#000000;shape=mxgraph.azure.laptop" vertex="1" parent="1">
          <mxGeometry x="189" y="-806.3" width="214" height="128.4" as="geometry" />
        </mxCell>
        <mxCell id="q-Dt-RjhZ1r0aY70Fhyo-20" value="t" style="outlineConnect=0;dashed=0;verticalLabelPosition=bottom;verticalAlign=top;align=center;html=1;shape=mxgraph.aws3.mobile_client;fillColor=#1C1C1C;gradientColor=none;" vertex="1" parent="1">
          <mxGeometry x="590" y="-808" width="70.5" height="120" as="geometry" />
        </mxCell>
        <mxCell id="q-Dt-RjhZ1r0aY70Fhyo-22" value="" style="sketch=0;pointerEvents=1;shadow=0;dashed=0;html=1;strokeColor=none;fillColor=#505050;labelPosition=center;verticalLabelPosition=bottom;verticalAlign=top;outlineConnect=0;align=center;shape=mxgraph.office.devices.tablet_windows_8;" vertex="1" parent="1">
          <mxGeometry x="421" y="-793" width="150" height="100" as="geometry" />
        </mxCell>
      </root>
    </mxGraphModel>
  </diagram>
</mxfile>
